<?xml version="1.0" encoding="UTF-8" ?>
<svg version="1.1" width="76" height="88" xmlns="http://www.w3.org/2000/svg" shape-rendering="crispEdges">
<rect x="32" y="0" width="12" height="4" fill="#000000" />
<rect x="28" y="1" width="4" height="4" fill="#000000" />
<rect x="44" y="1" width="5" height="4" fill="#000000" />
<rect x="25" y="2" width="3" height="5" fill="#000000" />
<rect x="49" y="2" width="2" height="5" fill="#000000" />
<rect x="22" y="3" width="3" height="6" fill="#000000" />
<rect x="51" y="3" width="3" height="6" fill="#000000" />
<rect x="21" y="4" width="1" height="8" fill="#000000" />
<rect x="32" y="4" width="2" height="1" fill="#000000" />
<rect x="34" y="4" width="8" height="1" fill="#F1EC91" />
<rect x="42" y="4" width="2" height="1" fill="#000000" />
<rect x="54" y="4" width="2" height="7" fill="#000000" />
<rect x="19" y="5" width="2" height="8" fill="#000000" />
<rect x="28" y="5" width="2" height="1" fill="#000000" />
<rect x="30" y="5" width="4" height="1" fill="#F1EC91" />
<rect x="34" y="5" width="12" height="78" fill="#E3DA23" />
<rect x="46" y="5" width="3" height="1" fill="#000000" />
<rect x="56" y="5" width="1" height="9" fill="#000000" />
<rect x="17" y="6" width="2" height="9" fill="#000000" />
<rect x="28" y="6" width="4" height="1" fill="#F1EC91" />
<rect x="32" y="6" width="2" height="77" fill="#E3DA23" />
<rect x="46" y="6" width="2" height="12" fill="#E3DA23" />
<rect x="48" y="6" width="1" height="1" fill="#000000" />
<rect x="57" y="6" width="2" height="9" fill="#000000" />
<rect x="16" y="7" width="1" height="12" fill="#000000" />
<rect x="25" y="7" width="1" height="1" fill="#000000" />
<rect x="26" y="7" width="3" height="1" fill="#F1EC91" />
<rect x="29" y="7" width="3" height="75" fill="#E3DA23" />
<rect x="48" y="7" width="2" height="9" fill="#E3DA23" />
<rect x="50" y="7" width="1" height="1" fill="#000000" />
<rect x="59" y="7" width="1" height="12" fill="#000000" />
<rect x="15" y="8" width="1" height="13" fill="#000000" />
<rect x="25" y="8" width="2" height="1" fill="#F1EC91" />
<rect x="27" y="8" width="2" height="73" fill="#E3DA23" />
<rect x="50" y="8" width="1" height="10" fill="#E3DA23" />
<rect x="60" y="8" width="1" height="13" fill="#000000" />
<rect x="14" y="9" width="1" height="15" fill="#000000" />
<rect x="22" y="9" width="2" height="1" fill="#000000" />
<rect x="24" y="9" width="2" height="1" fill="#F1EC91" />
<rect x="26" y="9" width="1" height="72" fill="#E3DA23" />
<rect x="51" y="9" width="2" height="10" fill="#E3DA23" />
<rect x="53" y="9" width="1" height="1" fill="#000000" />
<rect x="61" y="9" width="1" height="14" fill="#000000" />
<rect x="13" y="10" width="1" height="17" fill="#000000" />
<rect x="22" y="10" width="3" height="1" fill="#F1EC91" />
<rect x="25" y="10" width="1" height="70" fill="#E3DA23" />
<rect x="53" y="10" width="1" height="68" fill="#E3DA23" />
<rect x="62" y="10" width="1" height="17" fill="#000000" />
<rect x="12" y="11" width="1" height="20" fill="#000000" />
<rect x="22" y="11" width="2" height="1" fill="#F1EC91" />
<rect x="24" y="11" width="1" height="69" fill="#E3DA23" />
<rect x="54" y="11" width="1" height="66" fill="#E3DA23" />
<rect x="55" y="11" width="1" height="1" fill="#000000" />
<rect x="63" y="11" width="1" height="20" fill="#000000" />
<rect x="11" y="12" width="1" height="27" fill="#000000" />
<rect x="21" y="12" width="2" height="1" fill="#F1EC91" />
<rect x="23" y="12" width="1" height="67" fill="#E3DA23" />
<rect x="55" y="12" width="1" height="64" fill="#E3DA23" />
<rect x="64" y="12" width="1" height="27" fill="#000000" />
<rect x="10" y="13" width="1" height="62" fill="#000000" />
<rect x="19" y="13" width="1" height="1" fill="#000000" />
<rect x="20" y="13" width="2" height="1" fill="#F1EC91" />
<rect x="22" y="13" width="1" height="65" fill="#E3DA23" />
<rect x="65" y="13" width="1" height="62" fill="#000000" />
<rect x="9" y="14" width="1" height="60" fill="#000000" />
<rect x="19" y="14" width="1" height="1" fill="#F1EC91" />
<rect x="20" y="14" width="2" height="62" fill="#E3DA23" />
<rect x="56" y="14" width="1" height="60" fill="#E3DA23" />
<rect x="66" y="14" width="1" height="60" fill="#000000" />
<rect x="17" y="15" width="1" height="2" fill="#000000" />
<rect x="18" y="15" width="2" height="58" fill="#E3DA23" />
<rect x="57" y="15" width="1" height="58" fill="#E3DA23" />
<rect x="58" y="15" width="1" height="2" fill="#000000" />
<rect x="67" y="15" width="1" height="58" fill="#000000" />
<rect x="8" y="16" width="1" height="57" fill="#000000" />
<rect x="48" y="16" width="1" height="3" fill="#F1EC91" />
<rect x="49" y="16" width="1" height="1" fill="#E3DA23" />
<rect x="7" y="17" width="1" height="54" fill="#000000" />
<rect x="17" y="17" width="1" height="54" fill="#E3DA23" />
<rect x="49" y="17" width="1" height="3" fill="#F1EC91" />
<rect x="58" y="17" width="1" height="54" fill="#E3DA23" />
<rect x="68" y="17" width="1" height="54" fill="#000000" />
<rect x="46" y="18" width="1" height="64" fill="#E3DA23" />
<rect x="47" y="18" width="1" height="2" fill="#DEDA7E" />
<rect x="50" y="18" width="1" height="2" fill="#F1EC91" />
<rect x="6" y="19" width="1" height="50" fill="#000000" />
<rect x="16" y="19" width="1" height="50" fill="#E3DA23" />
<rect x="48" y="19" width="1" height="2" fill="#DEDA7E" />
<rect x="51" y="19" width="1" height="1" fill="#F1EC91" />
<rect x="52" y="19" width="1" height="60" fill="#E3DA23" />
<rect x="59" y="19" width="1" height="50" fill="#E3DA23" />
<rect x="69" y="19" width="1" height="50" fill="#000000" />
<rect x="47" y="20" width="1" height="62" fill="#E3DA23" />
<rect x="49" y="20" width="2" height="1" fill="#DEDA7E" />
<rect x="51" y="20" width="1" height="60" fill="#E3DA23" />
<rect x="70" y="20" width="1" height="48" fill="#000000" />
<rect x="5" y="21" width="1" height="47" fill="#000000" />
<rect x="15" y="21" width="1" height="46" fill="#E3DA23" />
<rect x="48" y="21" width="1" height="61" fill="#E3DA23" />
<rect x="49" y="21" width="1" height="1" fill="#DEDA7E" />
<rect x="50" y="21" width="1" height="59" fill="#E3DA23" />
<rect x="60" y="21" width="1" height="46" fill="#E3DA23" />
<rect x="49" y="22" width="1" height="59" fill="#E3DA23" />
<rect x="4" y="23" width="1" height="43" fill="#000000" />
<rect x="61" y="23" width="1" height="42" fill="#E3DA23" />
<rect x="71" y="23" width="1" height="42" fill="#000000" />
<rect x="14" y="24" width="1" height="41" fill="#E3DA23" />
<rect x="3" y="25" width="1" height="38" fill="#000000" />
<rect x="72" y="25" width="1" height="38" fill="#000000" />
<rect x="13" y="27" width="1" height="34" fill="#E3DA23" />
<rect x="62" y="27" width="1" height="34" fill="#E3DA23" />
<rect x="2" y="28" width="1" height="32" fill="#000000" />
<rect x="73" y="28" width="1" height="32" fill="#000000" />
<rect x="12" y="31" width="1" height="26" fill="#E3DA23" />
<rect x="63" y="31" width="1" height="26" fill="#E3DA23" />
<rect x="1" y="32" width="1" height="24" fill="#000000" />
<rect x="74" y="32" width="1" height="24" fill="#000000" />
<rect x="11" y="39" width="1" height="10" fill="#E3DA23" />
<rect x="64" y="39" width="1" height="10" fill="#E3DA23" />
<rect x="75" y="40" width="1" height="8" fill="#000000" />
<rect x="0" y="41" width="1" height="6" fill="#000000" />
<rect x="11" y="49" width="1" height="27" fill="#000000" />
<rect x="64" y="49" width="1" height="27" fill="#000000" />
<rect x="12" y="57" width="1" height="21" fill="#000000" />
<rect x="63" y="57" width="1" height="20" fill="#000000" />
<rect x="13" y="61" width="1" height="17" fill="#000000" />
<rect x="62" y="61" width="1" height="17" fill="#000000" />
<rect x="14" y="65" width="1" height="14" fill="#000000" />
<rect x="61" y="65" width="1" height="14" fill="#000000" />
<rect x="15" y="67" width="1" height="13" fill="#000000" />
<rect x="60" y="67" width="1" height="13" fill="#000000" />
<rect x="16" y="69" width="1" height="12" fill="#000000" />
<rect x="59" y="69" width="1" height="12" fill="#000000" />
<rect x="17" y="71" width="1" height="11" fill="#000000" />
<rect x="58" y="71" width="1" height="11" fill="#000000" />
<rect x="18" y="73" width="1" height="9" fill="#000000" />
<rect x="19" y="73" width="1" height="1" fill="#E3DA23" />
<rect x="57" y="73" width="1" height="9" fill="#000000" />
<rect x="19" y="74" width="1" height="9" fill="#000000" />
<rect x="56" y="74" width="1" height="9" fill="#000000" />
<rect x="20" y="76" width="1" height="8" fill="#000000" />
<rect x="21" y="76" width="1" height="1" fill="#E3DA23" />
<rect x="55" y="76" width="1" height="8" fill="#000000" />
<rect x="21" y="77" width="1" height="7" fill="#000000" />
<rect x="54" y="77" width="1" height="7" fill="#000000" />
<rect x="22" y="78" width="1" height="7" fill="#000000" />
<rect x="53" y="78" width="1" height="7" fill="#000000" />
<rect x="23" y="79" width="1" height="6" fill="#000000" />
<rect x="52" y="79" width="1" height="6" fill="#000000" />
<rect x="24" y="80" width="2" height="5" fill="#000000" />
<rect x="50" y="80" width="2" height="5" fill="#000000" />
<rect x="26" y="81" width="2" height="5" fill="#000000" />
<rect x="28" y="81" width="1" height="1" fill="#E3DA23" />
<rect x="49" y="81" width="1" height="5" fill="#000000" />
<rect x="28" y="82" width="2" height="5" fill="#000000" />
<rect x="30" y="82" width="2" height="1" fill="#E3DA23" />
<rect x="46" y="82" width="3" height="5" fill="#000000" />
<rect x="30" y="83" width="3" height="4" fill="#000000" />
<rect x="33" y="83" width="10" height="1" fill="#E3DA23" />
<rect x="43" y="83" width="3" height="4" fill="#000000" />
<rect x="33" y="84" width="10" height="4" fill="#000000" />
<rect x="25" y="85" width="1" height="1" fill="#000000" />
<rect x="50" y="85" width="1" height="1" fill="#000000" />
<rect x="32" y="87" width="1" height="1" fill="#000000" />
<rect x="43" y="87" width="1" height="1" fill="#000000" />
</svg>